<?xml version="1.0" encoding="UTF-8" standalone="no"?>
<svg xmlns:rdf="http://www.w3.org/1999/02/22-rdf-syntax-ns#" xmlns="http://www.w3.org/2000/svg" height="183.369" width="337.5" version="1.1" xmlns:cc="http://creativecommons.org/ns#" xmlns:dc="http://purl.org/dc/elements/1.1/">
 <g transform="translate(545.492 -209.768)">
  <path fill="#fff" d="m-545.492 370.857h337.5v-135.831h-337.5v135.831z"/>
  <path d="m-545.492 393.137h337.5v-183.369h-337.5v183.369z" fill="#eb2757"/>
  <path d="m-227.79 258.177c0 4.12125-3.34125 7.46125-7.46125 7.46125-4.12125 0-7.46125-3.34-7.46125-7.46125s3.34-7.46125 7.46125-7.46125c4.12 0 7.46125 3.34 7.46125 7.46125z" stroke="#231f20" stroke-width="2.5" fill="none"/>
  <g transform="matrix(1.25 0 0 -1.25 -546.117 468.048)">
   <text transform="matrix(1,0,0,-1,245.479,164.527)">
    <tspan font-weight="500" font-size="10px" y="0" x="0" font-family="Franklin Gothic Medium" fill="#231f20">R</tspan>
   </text>
  </g>
  <g fill="#fff">
   <path d="m-466.198 257.526s12.7178 0.605 9.08438 13.9288c-3.63325 13.3238-21.1972 46.6338-21.1972 46.6338s19.3809-0.60625 17.564 13.9288c-1.81738 14.5351-15.7466 22.4078-33.3096 22.4078s-26.6479-4.84675-25.4365-13.929c1.212-9.08375 9.0845-13.3238 9.0845-13.3238s16.9575-73.2812 44.2105-69.6462"/>
   <path d="m-441.368 286.594s-9.084-6.055-6.66112-11.5062c2.42237-5.45 9.6895-16.35 35.1259-16.9562 25.4362-0.60625 33.685 3.86 29.07 15.14-5.45125 13.3225-21.1975 12.7162-30.8875 13.3225l-2.4225 7.87375s17.6012-2.42125 15.785 7.87375c-1.81625 10.295-10.9388 13.3225-24.8686 16.3512v7.26875s22.4074-7.835 23.6961 4.27625c1.16 10.9075-4.31625 21.1576-30.9638 24.7915-26.6469 3.63475-24.224-21.1952-19.9852-32.7028 4.23925-11.5075 12.1118-35.7325 12.1118-35.7325"/>
   <path d="m-339.018 257.526c13.3038 0.74 24.225 18.1688 18.775 27.2525-5.45125 9.085-12.7175 11.5075-18.1688 7.87375-5.45125-3.63375-12.1125-7.2675-12.1125-7.2675s-16.3512 4.23875-19.985 18.7738c-3.63375 14.535-2.4225 21.8038 2.4225 23.0138 4.84375 1.21125 11.505-1.8175 12.1112-7.8725 0.60625-6.05625-6.055 2.42375-6.66125-3.0275-0.60625-5.4525 1.81625-12.7188 1.81625-12.7188s5.49-10.9412 11.5462-9.12375c6.05625 1.8175 12.3062 3.0675 12.3062 3.0675s15.5525-2.38375 15.5525 6.7c0 9.085-6.66125 11.4675-7.87375 16.3125-1.21125 4.845-6.7 28.466-7.91125 31.4939-1.21125 3.02638-9.975-0.15137-21.5462-0.0786-12.4462 0.0786-13.0138 3.71087-20.8862 2.5-7.8725-1.2115-27.1762-13.324-14.4575-53.9002 11.1588-35.6 36.455-44.0362 55.0725-42.9988"/>
   <path d="m-306.92 280.539s4.845 4.84625 7.8725 7.2675c3.02875 2.4225 9.085 3.6325 9.085 6.66125s-13.93 39.365 3.63375 39.365c17.5625 0 23.0125-38.1525 7.8725-46.6312-15.14-8.47875-27.2525-7.87375-23.6188-21.1975 3.63375-13.325 39.365-18.775 53.2938 19.985 13.93 38.76-19.985 73.8864-39.97 71.4635-19.9862-2.42325-35.1262-18.1672-32.0988-44.816 3.02875-26.6475 10.9025-32.0975 13.93-32.0975"/>
  </g>
  <g stroke="#231f20" stroke-width="20" fill="none">
   <path d="m-466.198 257.526s12.7178 0.605 9.08438 13.9288c-3.63325 13.3238-21.1972 46.6338-21.1972 46.6338s19.3809-0.60625 17.564 13.9288c-1.81738 14.5351-15.7466 22.4078-33.3096 22.4078s-26.6479-4.84675-25.4365-13.929c1.212-9.08375 9.0845-13.3238 9.0845-13.3238s16.9575-73.2812 44.2105-69.6462z"/>
   <path d="m-441.368 286.594s-9.084-6.055-6.66112-11.5062c2.42237-5.45 9.6895-16.35 35.1259-16.9562 25.4362-0.60625 33.685 3.86 29.07 15.14-5.45125 13.3225-21.1975 12.7162-30.8875 13.3225l-2.4225 7.87375s17.6012-2.42125 15.785 7.87375c-1.81625 10.295-10.9388 13.3225-24.8686 16.3512v7.26875s22.4074-7.835 23.6961 4.27625c1.16 10.9075-4.31625 21.1576-30.9638 24.7915-26.6469 3.63475-24.224-21.1952-19.9852-32.7028 4.23925-11.5075 12.1118-35.7325 12.1118-35.7325z"/>
   <path d="m-339.018 257.526c13.3038 0.74 24.225 18.1688 18.775 27.2525-5.45125 9.085-12.7175 11.5075-18.1688 7.87375-5.45125-3.63375-12.1125-7.2675-12.1125-7.2675s-16.3512 4.23875-19.985 18.7738c-3.63375 14.535-2.4225 21.8038 2.4225 23.0138 4.84375 1.21125 11.505-1.8175 12.1112-7.8725 0.60625-6.05625-6.055 2.42375-6.66125-3.0275-0.60625-5.4525 1.81625-12.7188 1.81625-12.7188s5.49-10.9412 11.5462-9.12375c6.05625 1.8175 12.3062 3.0675 12.3062 3.0675s15.5525-2.38375 15.5525 6.7c0 9.085-6.66125 11.4675-7.87375 16.3125-1.21125 4.845-6.7 28.466-7.91125 31.4939-1.21125 3.02638-9.975-0.15137-21.5462-0.0786-12.4462 0.0786-13.0138 3.71087-20.8862 2.5-7.8725-1.2115-27.1762-13.324-14.4575-53.9002 11.1588-35.6 36.455-44.0362 55.0725-42.9988z"/>
   <path d="m-306.92 280.539s4.845 4.84625 7.8725 7.2675c3.02875 2.4225 9.085 3.6325 9.085 6.66125s-13.93 39.365 3.63375 39.365c17.5625 0 23.0125-38.1525 7.8725-46.6312-15.14-8.47875-27.2525-7.87375-23.6188-21.1975 3.63375-13.325 39.365-18.775 53.2938 19.985 13.93 38.76-19.985 73.8864-39.97 71.4635-19.9862-2.42325-35.1262-18.1672-32.0988-44.816 3.02875-26.6475 10.9025-32.0975 13.93-32.0975z"/>
  </g>
  <path d="m-466.198 257.526s12.7178 0.605 9.08438 13.9288c-3.63325 13.3238-21.1972 46.6338-21.1972 46.6338s19.3809-0.60625 17.564 13.9288c-1.81738 14.5351-15.7466 22.4078-33.3096 22.4078s-26.6479-4.84675-25.4365-13.929c1.212-9.08375 9.0845-13.3238 9.0845-13.3238s16.9575-73.2812 44.2105-69.6462" fill="#fff"/>
  <path d="m-466.198 257.526s12.7178 0.605 9.08438 13.9288c-3.63325 13.3238-21.1972 46.6338-21.1972 46.6338s19.3809-0.60625 17.564 13.9288c-1.81738 14.5351-15.7466 22.4078-33.3096 22.4078s-26.6479-4.84675-25.4365-13.929c1.212-9.08375 9.0845-13.3238 9.0845-13.3238s16.9575-73.2812 44.2105-69.6462z" stroke="#231f20" stroke-width="1.25" fill="none"/>
  <path d="m-441.368 286.594s-9.084-6.055-6.66112-11.5062c2.42237-5.45 9.6895-16.35 35.1259-16.9562 25.4362-0.60625 33.685 3.86 29.07 15.14-5.45125 13.3225-21.1975 12.7162-30.8875 13.3225l-2.4225 7.87375s17.6012-2.42125 15.785 7.87375c-1.81625 10.295-10.9388 13.3225-24.8686 16.3512v7.26875s22.4074-7.835 23.6961 4.27625c1.16 10.9075-4.31625 21.1576-30.9638 24.7915-26.6469 3.63475-24.224-21.1952-19.9852-32.7028 4.23925-11.5075 12.1118-35.7325 12.1118-35.7325" fill="#fff"/>
  <path d="m-441.368 286.594s-9.084-6.055-6.66112-11.5062c2.42237-5.45 9.6895-16.35 35.1259-16.9562 25.4362-0.60625 33.685 3.86 29.07 15.14-5.45125 13.3225-21.1975 12.7162-30.8875 13.3225l-2.4225 7.87375s17.6012-2.42125 15.785 7.87375c-1.81625 10.295-10.9388 13.3225-24.8686 16.3512v7.26875s22.4074-7.835 23.6961 4.27625c1.16 10.9075-4.31625 21.1576-30.9638 24.7915-26.6469 3.63475-24.224-21.1952-19.9852-32.7028 4.23925-11.5075 12.1118-35.7325 12.1118-35.7325z" stroke="#231f20" stroke-width="1.25" fill="none"/>
  <path d="m-339.018 257.526c13.3038 0.74 24.225 18.1688 18.775 27.2525-5.45125 9.085-12.7175 11.5075-18.1688 7.87375-5.45125-3.63375-8.25125-7.31125-12.1125-7.2675-3.86125 0.0437-16.3512 4.23875-19.985 18.7738-3.63375 14.535-2.4225 21.8038 2.4225 23.0138 4.84375 1.21125 11.505-1.8175 12.1112-7.8725 0.60625-6.05625-6.055 2.42375-6.66125-3.0275-0.60625-5.4525 1.81625-12.7188 1.81625-12.7188s5.49-10.9412 11.5462-9.12375c6.05625 1.8175 12.3062 3.0675 12.3062 3.0675s15.5525-2.38375 15.5525 6.7c0 9.085-6.66125 11.4675-7.87375 16.3125-1.21125 4.845-6.7 28.466-7.91125 31.4939-1.21125 3.02638-9.975-0.15137-21.5462-0.0786-12.4462 0.0786-13.0138 3.71087-20.8862 2.5-7.8725-1.2115-27.1762-13.324-14.4575-53.9002 11.1588-35.6 36.455-44.0362 55.0725-42.9988" fill="#fff"/>
  <path d="m-339.018 257.526c13.3038 0.74 24.225 18.1688 18.775 27.2525-5.45125 9.085-12.7175 11.5075-18.1688 7.87375-5.45125-3.63375-8.25125-7.31125-12.1125-7.2675-3.86125 0.0437-16.3512 4.23875-19.985 18.7738-3.63375 14.535-2.4225 21.8038 2.4225 23.0138 4.84375 1.21125 11.505-1.8175 12.1112-7.8725 0.60625-6.05625-6.055 2.42375-6.66125-3.0275-0.60625-5.4525 1.81625-12.7188 1.81625-12.7188s5.49-10.9412 11.5462-9.12375c6.05625 1.8175 12.3062 3.0675 12.3062 3.0675s15.5525-2.38375 15.5525 6.7c0 9.085-6.66125 11.4675-7.87375 16.3125-1.21125 4.845-6.7 28.466-7.91125 31.4939-1.21125 3.02638-9.975-0.15137-21.5462-0.0786-12.4462 0.0786-13.0138 3.71087-20.8862 2.5-7.8725-1.2115-27.1762-13.324-14.4575-53.9002 11.1588-35.6 36.455-44.0362 55.0725-42.9988z" stroke="#231f20" stroke-width="1.25" fill="none"/>
  <path d="m-306.92 280.539s4.845 4.84625 7.8725 7.2675c3.02875 2.4225 9.085 3.6325 9.085 6.66125s-13.93 39.365 3.63375 39.365c17.5625 0 23.0125-38.1525 7.8725-46.6312-15.14-8.47875-27.2525-7.87375-23.6188-21.1975 3.63375-13.325 39.365-18.775 53.2938 19.985 13.93 38.76-19.985 73.8864-39.97 71.4635-19.9862-2.42325-35.1262-18.1672-32.0988-44.816 3.02875-26.6475 10.9025-32.0975 13.93-32.0975" fill="#fff"/>
  <path d="m-306.92 280.539s4.845 4.84625 7.8725 7.2675c3.02875 2.4225 9.085 3.6325 9.085 6.66125s-13.93 39.365 3.63375 39.365c17.5625 0 23.0125-38.1525 7.8725-46.6312-15.14-8.47875-27.2525-7.87375-23.6188-21.1975 3.63375-13.325 39.365-18.775 53.2938 19.985 13.93 38.76-19.985 73.8864-39.97 71.4635-19.9862-2.42325-35.1262-18.1672-32.0988-44.816 3.02875-26.6475 10.9025-32.0975 13.93-32.0975z" stroke="#231f20" stroke-width="1.25" fill="none"/>
 </g>
</svg>
